<?xml version="1.0" encoding="utf-8"?>
<svg role="img" xmlns="http://www.w3.org/2000/svg" viewBox="0 0 64.64 116.92">
  <path fill="currentColor" d="M64,.34c.66,6.38,1,11.91-.12,17.35-4.1,2.37-8.18,1.3-12.08,1.43-8.44.3-10.34,2-10.34,10.39,0,3.27-.63,6.65,1,10.2,6.71,2.11,14-.41,21.24,1.66,1.38,5.54,1.06,10.87.24,16.46-7.19,2.39-14.55-.3-22.07,2.09-1.2,18.46.18,37-.79,55.92-6.94,1.6-13.39,1.21-20.82.24V60.19C13.55,57.51,7.13,60.12.93,57.92-.61,52.57.18,47.22.4,41.74c6.27-2.65,12.71.06,18.6-2.15,1.77-3.36,1-6.92,1-10.34.15-8,2.55-15.06,7.92-21C32,3.73,37,.8,43.12.42A144.08,144.08,0,0,1,64,.34Z"></path>
</svg>
