<?xml version="1.0" encoding="utf-8"?>
<svg role="img" xmlns="http://www.w3.org/2000/svg" viewBox="0 0 112.04 111.72">
  <path fill="currentColor" d="M90.88,51.11c5.47-1.7,15.5-1.6,19.76,0,1.55,1.59,1.34,3.66,1.34,5.63,0,12,.12,24,0,36-.16,12.75-6.41,18.89-19.25,18.92q-36.47.11-72.95,0C7.47,111.59.49,104.78.31,92.54S.23,68.23.23,56.07c0-1.65-.12-3.35,1.46-5.36a52,52,0,0,1,19.34,0c1.58,24.4,12.37,41,38.54,38.94C81.68,87.94,90.79,72.41,90.88,51.11Z"></path>
  <path class="cls-1" d="M110.78,35.16A117,117,0,0,1,85,35.1c-1.68-.21-2.71-1.84-3.9-3-14.75-14.45-36-14.25-50.29.48-1,1.08-2,2.52-3.52,2.66A139.24,139.24,0,0,1,.44,35.08c.13-9.61-2.3-18.92,3-27.48a15.84,15.84,0,0,1,14-7.5c25.8-.1,51.62-.18,77.43,0,10.12.09,16.7,7,17,17.15.16,4.82,0,9.66-.11,14.48A16,16,0,0,1,110.78,35.16ZM88.38,9.41a26.4,26.4,0,0,0,.12,14.11c5,2,9.68,2.16,14.54-.18,1.15-4.92,1.88-9.54-.83-14.14A26.59,26.59,0,0,0,88.38,9.41Z"></path>
  <path class="cls-1" d="M76.66,55.72A20.57,20.57,0,0,1,56.2,76.41h-.11c-11,0-20-9.28-20-20.62a20.3,20.3,0,1,1,40.6-.06h0Z"></path>
</svg>
