<?xml version="1.0" encoding="utf-8"?>
<svg role="img" xmlns="http://www.w3.org/2000/svg" viewBox="0 0 115.18 110.06">
  <path fill="currentColor" d="M115.18,67.48v42.58H90.49V70.33c0-10-3.57-16.79-12.5-16.79-6.82,0-10.88,4.59-12.67,9a16.94,16.94,0,0,0-.82,6v41.47H39.81s.33-67.29,0-74.26H64.5V46.33a2,2,0,0,0-.16.24h.16v-.24c3.28-5.06,9.14-12.28,22.25-12.28C103,34.05,115.18,44.67,115.18,67.48ZM14,0C5.53,0,0,5.54,0,12.83,0,20,5.37,25.67,13.65,25.67h.16c8.61,0,14-5.71,14-12.84C27.62,5.54,22.42,0,14,0ZM1.47,110.06H26.15V35.8H1.47Z"></path>
</svg>
