<?xml version="1.0" encoding="utf-8"?>
<svg role="img" xmlns="http://www.w3.org/2000/svg" viewBox="0 0 108.16 91.87">
  <path fill="currentColor" d="M2.14,34.15c3-.94,4.95,1.09,8,.11C6.6,30.1,3.44,26,2.35,20.68A21.12,21.12,0,0,1,4.47,5.82c3.09.27,4.27,2.56,5.85,4.15A59.39,59.39,0,0,0,44.45,27.62c3.2.48,3.42.5,6.83-.68,1.43-1.34,1.22-3.14,1.33-4.84C53.77,4.54,71.69-5.65,86.93,3.32c5.55,3.24,9.94,3.66,15.22.84a3.28,3.28,0,0,1,3-.37c.43,4.38-4.15,6-5.77,9.43,3.14,1.15,5.6-1.65,8.76-.73-.89,3.33-3.5,5.22-5.78,7.16a10.3,10.3,0,0,0-3.86,8.12c-1.36,37.33-31,65.15-68.15,64.07C18.77,91.51,6.94,87.93,0,82.28c5.74-.84,11.05-.44,16-2.07a42.38,42.38,0,0,0,14.62-8c-9.3-2.16-16.53-5.66-19.4-14.24,1.48-2.56,4.27-.8,6.12-3.14C8.71,50.68,2.83,44.35,2.14,34.15Z"></path>
</svg>
