<?xml version="1.0" encoding="utf-8"?>
<svg role="img" xmlns="http://www.w3.org/2000/svg" viewBox="0 0 138.39 95.76">
  <path fill="currentColor" d="M65.25,95.75c-14.3-.07-28.6-.25-42.85-1.58a30.31,30.31,0,0,1-8.32-1.68C5.47,89.16,2,82.36,1.19,73.64A283.51,283.51,0,0,1,.75,26.93,77.7,77.7,0,0,1,2.33,16.22C3.88,8.78,10.57,3.16,18.9,2.1,33.46.25,48.1.2,62.74,0c15.6-.18,31.18.25,46.76,1.1,3.6.19,7.21.56,10.78,1.1,9.06,1.36,14.32,6.67,15.94,15.81C138.16,29,138.45,40,138.38,51a184.35,184.35,0,0,1-2.06,26.74c-1.56,10.25-10,15.14-16.89,16-15.25,1.85-30.58,1.9-45.91,2C70.76,95.77,68,95.75,65.25,95.75ZM56.14,26.69v42.4l34.48-21.2Z"></path>
</svg>
