<?xml version="1.0" standalone="no"?>
<!DOCTYPE svg PUBLIC "-//W3C//DTD SVG 20010904//EN"
 "http://www.w3.org/TR/2001/REC-SVG-20010904/DTD/svg10.dtd">
<svg version="1.0" xmlns="http://www.w3.org/2000/svg"
 width="1000.000000pt" height="1000.000000pt" viewBox="0 0 1000.000000 1000.000000"
 preserveAspectRatio="xMidYMid meet">
<metadata>
Created by potrace 1.11, written by Peter Selinger 2001-2013
</metadata>
<g transform="translate(0.000000,1000.000000) scale(0.100000,-0.100000)"
fill="#000000" stroke="none">
<path d="M4748 9605 c-2 -2 -48 -6 -103 -10 -55 -4 -113 -8 -130 -11 -39 -5
-123 -15 -155 -19 -14 -2 -38 -5 -55 -8 -16 -3 -50 -9 -75 -12 -25 -4 -54 -9
-65 -11 -11 -2 -33 -7 -50 -10 -16 -3 -50 -10 -75 -15 -25 -6 -52 -12 -60 -14
-8 -2 -37 -9 -65 -15 -27 -6 -57 -13 -65 -15 -71 -15 -411 -123 -485 -154 -11
-5 -67 -28 -125 -51 -256 -104 -578 -277 -810 -434 -58 -39 -109 -74 -115 -79
-5 -4 -35 -26 -65 -49 -68 -50 -175 -135 -215 -169 -16 -15 -55 -48 -85 -74
-101 -88 -268 -254 -406 -405 -31 -35 -186 -224 -232 -285 -61 -80 -161 -228
-247 -365 -79 -125 -209 -373 -289 -552 -117 -261 -264 -735 -302 -975 -3 -19
-8 -45 -10 -57 -19 -99 -26 -141 -39 -261 -4 -33 -9 -68 -10 -77 -26 -135 -25
-783 0 -958 2 -14 7 -50 10 -80 27 -236 106 -596 185 -845 102 -315 259 -669
409 -915 11 -19 24 -42 28 -50 35 -79 306 -457 429 -600 12 -14 43 -50 69 -80
265 -307 675 -653 1030 -870 438 -269 952 -479 1405 -575 3 -1 30 -7 60 -13
83 -19 172 -35 254 -47 21 -3 48 -7 60 -10 12 -2 48 -7 81 -10 33 -3 74 -7 90
-10 199 -26 774 -27 1000 0 16 2 55 6 85 10 30 3 69 9 85 11 17 3 44 7 60 9
17 2 62 9 100 15 39 7 83 14 100 16 16 2 39 7 50 11 11 3 29 7 40 9 11 1 70
14 130 29 61 14 118 28 128 30 34 7 193 57 302 94 448 154 922 416 1255 694
279 232 476 437 679 707 39 52 74 100 79 105 71 92 233 369 327 560 120 243
251 590 300 792 3 10 14 54 25 98 11 44 33 143 49 220 26 127 33 164 46 260 3
17 7 48 10 70 12 76 14 90 21 170 3 44 8 88 10 97 1 10 6 84 10 165 16 324 4
696 -31 963 -3 19 -7 55 -10 80 -3 25 -8 52 -10 60 -2 8 -6 35 -10 60 -3 25
-7 54 -9 65 -3 20 -11 20 -2175 21 l-2171 1 2 -891 3 -891 1235 0 c817 0 1235
-3 1235 -10 0 -26 -29 -149 -54 -230 -72 -230 -173 -434 -315 -630 -168 -233
-446 -478 -691 -610 -38 -21 -74 -41 -80 -45 -5 -4 -60 -30 -122 -58 -239
-109 -530 -189 -822 -226 -198 -25 -593 -26 -723 -1 -13 3 -42 7 -65 10 -138
17 -458 102 -560 150 -17 8 -34 15 -37 15 -9 0 -89 37 -196 90 -262 130 -485
292 -706 514 -268 269 -461 556 -612 911 -45 104 -124 347 -136 415 -2 14 -9
43 -15 65 -11 43 -40 217 -46 275 -2 19 -6 64 -10 100 -7 74 -8 338 -1 420 18
209 54 395 118 605 20 68 79 229 98 270 70 151 100 213 138 280 44 78 162 260
194 300 9 11 44 55 78 98 113 144 312 339 465 454 97 74 131 97 225 155 243
150 480 252 737 319 125 32 138 35 238 50 39 6 81 12 95 15 131 22 547 22 670
0 14 -3 43 -7 65 -10 22 -2 51 -7 65 -10 24 -6 49 -10 120 -22 19 -3 73 -17
120 -31 47 -14 94 -27 105 -30 11 -3 29 -8 40 -13 11 -4 58 -23 105 -41 253
-96 552 -280 735 -452 33 -31 62 -57 65 -57 3 0 302 297 665 660 l659 659 -30
28 c-141 134 -392 328 -589 454 -160 103 -148 96 -275 167 -229 129 -498 246
-765 331 -179 57 -178 57 -290 85 -88 21 -135 32 -235 51 -62 12 -200 35 -245
40 -27 4 -61 8 -75 11 -14 2 -59 6 -100 10 -41 3 -91 8 -110 10 -39 6 -617 14
-622 9z"/>
</g>
</svg>
